# xmcd
#
# Track frame offsets:
#	150
#	24515
#	37899
#	49910
#	64235
#	75331
#	93522
#	105816
#	121815
#	131014
#	142445
#	153353
#	163994
#	181563
#	199475
#	212850
#
# Disc length: 2998 seconds
#
# Revision: 1
# Processed by: cddbd v1.5.2PL0 Copyright (c) Steve Scherf et al.
# Submitted via: audiograbber 1.83.01
#
DISCID=db0bb410
DTITLE=Mathilde Santing - Luck Be A Lady
DYEAR=2011
DGENRE=Pop
TTITLE0=Luck Be A Lady
TTITLE1=You Make Me Feel So Young 
TTITLE2=I'm Gonna Sit Right Down
TTITLE3=The End Of A Love Affair 
TTITLE4=At Long Last Love 
TTITLE5=The Best Is Yet To Come
TTITLE6=Didn't We
TTITLE7=Learning The Blues
TTITLE8=Look At Me Now 
TTITLE9=How Little It Matters How Little We Know 
TTITLE10=Imagination
TTITLE11=Goody Goody
TTITLE12=Send In The Clowns
TTITLE13=Here's To The Losers
TTITLE14=I'm Gonna Live Until I Die
TTITLE15=Bim Bam Baby 
EXTD=
EXTT0=
EXTT1=
EXTT2=
EXTT3=
EXTT4=
EXTT5=
EXTT6=
EXTT7=
EXTT8=
EXTT9=
EXTT10=
EXTT11=
EXTT12=
EXTT13=
EXTT14=
EXTT15=
PLAYORDER=
